<svg width="292" height="108" viewBox="0 0 292 108" fill="none" xmlns="http://www.w3.org/2000/svg">
<g filter="url(#filter0_d)">
<rect x="25.5" y="20.5" width="231" height="47" rx="21.5" fill="#00918C" stroke="#00918C"/>
<path d="M90.6445 45.4062H92.1445V53H98.1094C103.148 53 106.113 49.8594 106.113 44.5156C106.113 39.1836 103.137 36.0898 98.1094 36.0898H92.1445V43.25H90.6445V45.4062ZM94.7695 38.3516H97.8633C101.438 38.3516 103.43 40.5547 103.43 44.5391C103.43 48.5352 101.449 50.7266 97.8633 50.7266H94.7695V45.4062H98.332V43.25H94.7695V38.3516ZM110.402 31.2852C110.543 33.2656 111.949 34.9297 114.328 34.9297C116.707 34.9297 118.102 33.2656 118.242 31.2852H116.52C116.402 32.6445 115.547 33.4531 114.328 33.4531C113.109 33.4531 112.254 32.6445 112.125 31.2852H110.402ZM119.074 53H121.852L115.746 36.0898H112.91L106.805 53H109.535L111.082 48.4297H117.527L119.074 53ZM114.27 38.9023H114.34L116.859 46.3203H111.75L114.27 38.9023ZM126.27 53V40.543H126.375L135.141 53H137.508V36.0898H134.953V48.5586H134.859L126.094 36.0898H123.715V53H126.27ZM155.203 45.9688V44.2461H148.242V46.3672H152.613V46.6602C152.578 49.2266 150.68 50.9844 147.938 50.9844C144.715 50.9844 142.711 48.4883 142.711 44.4453C142.711 40.4727 144.656 38.1055 147.891 38.1055C150.094 38.1055 151.746 39.3125 152.379 41.4102H155.074C154.488 38.0352 151.641 35.8086 147.879 35.8086C143.062 35.8086 140.027 39.1367 140.027 44.4688C140.027 49.8945 143.074 53.2812 147.914 53.2812C152.496 53.2812 155.203 50.5508 155.203 45.9688ZM165.27 53V47.3633L167.004 45.3828L172.863 53H176.121L168.855 43.5781L175.559 36.0898H172.441L165.375 44.1406H165.27V36.0898H162.645V53H165.27ZM184.887 34.7422L187.664 31.2734H185.062L183.035 34.7422H184.887ZM185.133 53V46.0742L191.098 36.0898H188.191L183.879 43.5547H183.797L179.484 36.0898H176.555L182.508 46.0742V53H185.133Z" fill="white"/>
</g>
<defs>
<filter id="filter0_d" x="0" y="0" width="292" height="108" filterUnits="userSpaceOnUse" color-interpolation-filters="sRGB">
<feFlood flood-opacity="0" result="BackgroundImageFix"/>
<feColorMatrix in="SourceAlpha" type="matrix" values="0 0 0 0 0 0 0 0 0 0 0 0 0 0 0 0 0 0 127 0"/>
<feOffset dx="5" dy="10"/>
<feGaussianBlur stdDeviation="15"/>
<feColorMatrix type="matrix" values="0 0 0 0 0.180392 0 0 0 0 0.670588 0 0 0 0 0.843137 0 0 0 0.2 0"/>
<feBlend mode="normal" in2="BackgroundImageFix" result="effect1_dropShadow"/>
<feBlend mode="normal" in="SourceGraphic" in2="effect1_dropShadow" result="shape"/>
</filter>
</defs>
</svg>
