<svg width="208" height="209" viewBox="0 0 208 209" fill="none" xmlns="http://www.w3.org/2000/svg">
<path fill-rule="evenodd" clip-rule="evenodd" d="M104 204.125C158.997 204.125 203.581 159.541 203.581 104.544C203.581 49.5475 158.997 4.96369 104 4.96369C49.0032 4.96369 4.41937 49.5475 4.41937 104.544C4.41937 159.541 49.0032 204.125 104 204.125ZM104 208.189C161.242 208.189 207.645 161.786 207.645 104.544C207.645 47.3027 161.242 0.89917 104 0.89917C46.7584 0.89917 0.354858 47.3027 0.354858 104.544C0.354858 161.786 46.7584 208.189 104 208.189Z" fill="#FFCA42"/>
<g clip-path="url(#clip0)">
<path d="M55.0546 120.811V58.0113C55.0546 56.1406 56.571 54.6241 58.4417 54.6241H150.574C152.445 54.6241 153.962 56.1406 153.962 58.0113V120.811H55.0546Z" fill="#3A556A"/>
<path d="M41 146.815L55.0544 120.811H153.961L168.016 146.815H41Z" fill="#64798A"/>
<path d="M149.943 58.6423H59.0735V116.799H149.943V58.6423Z" fill="white"/>
<g opacity="0.2">
<path opacity="0.2" d="M107.597 81.3901C108.269 81.3901 108.817 81.9379 108.817 82.6105C108.817 83.2831 108.269 83.831 107.597 83.831C106.924 83.831 106.376 83.2831 106.376 82.6105C106.376 81.9366 106.924 81.3901 107.597 81.3901ZM107.597 80.9833C106.698 80.9833 105.969 81.7115 105.969 82.6105C105.969 83.5096 106.698 84.2378 107.597 84.2378C108.496 84.2378 109.224 83.5096 109.224 82.6105C109.224 81.7115 108.494 80.9833 107.597 80.9833Z" fill="#00A99D"/>
<path opacity="0.2" d="M107.819 68.3706C109.172 68.3706 110.234 68.7109 110.973 69.3808C111.711 70.0507 112.07 70.9715 112.07 72.1987C112.07 73.2727 111.551 74.3575 110.526 75.4247L109.205 76.7252C109.183 76.7469 109.163 76.7686 109.143 76.7916C108.696 77.3123 108.428 78.0229 108.347 78.9057C108.34 78.9721 108.282 79.025 108.212 79.025H106.802C106.752 79.025 106.718 78.9979 106.703 78.983C106.688 78.9667 106.662 78.9328 106.665 78.8813C106.702 78.225 106.807 77.6825 106.98 77.2689C107.198 76.7469 107.647 76.1529 108.314 75.5061C109.053 74.7887 109.514 74.2843 109.72 73.9656C110.055 73.4557 110.225 72.897 110.225 72.3017C110.225 71.5139 110.016 70.8928 109.606 70.4562C109.189 70.0127 108.588 69.7876 107.818 69.7876C107.088 69.7876 106.486 70.0019 106.028 70.4236C105.675 70.7477 105.453 71.1613 105.365 71.6536C105.355 71.7064 105.298 71.7485 105.234 71.7485H103.653C103.599 71.7485 103.564 71.7186 103.549 71.701C103.537 71.6883 103.528 71.673 103.522 71.6564C103.517 71.6397 103.515 71.6221 103.518 71.6047C103.633 70.688 104.006 69.9666 104.658 69.3984C105.442 68.7164 106.505 68.3706 107.819 68.3706ZM107.819 67.9637C106.398 67.9637 105.256 68.3394 104.392 69.0906C103.667 69.7212 103.241 70.5429 103.115 71.5532C103.074 71.8732 103.332 72.1539 103.655 72.1539H105.237C105.493 72.1539 105.723 71.9763 105.767 71.7241C105.839 71.32 106.018 70.9864 106.306 70.7219C106.688 70.3694 107.193 70.1931 107.82 70.1931C108.477 70.1931 108.973 70.3734 109.312 70.7328C109.651 71.0935 109.821 71.6156 109.821 72.299C109.821 72.8157 109.676 73.2957 109.384 73.7405C109.194 74.0321 108.744 74.523 108.033 75.2118C107.323 75.9007 106.847 76.534 106.607 77.1103C106.416 77.5686 106.3 78.1504 106.261 78.8569C106.257 78.9306 106.268 79.0045 106.293 79.0738C106.319 79.1432 106.358 79.2067 106.409 79.2603C106.46 79.314 106.521 79.3568 106.589 79.386C106.656 79.4153 106.73 79.4304 106.803 79.4305H108.214C108.492 79.4305 108.726 79.2189 108.752 78.9423C108.827 78.1422 109.06 77.513 109.452 77.0547C109.464 77.0398 109.478 77.0262 109.491 77.0127L110.816 75.7081C111.924 74.5555 112.477 73.3852 112.477 72.196C112.477 70.8603 112.068 69.8215 111.247 69.0771C110.427 68.3353 109.284 67.9637 107.819 67.9637Z" fill="#00A99D"/>
</g>
<path d="M100.547 84.235C101.445 84.235 102.174 83.507 102.174 82.6091C102.174 81.7111 101.445 80.9832 100.547 80.9832C99.6479 80.9832 98.9193 81.7111 98.9193 82.6091C98.9193 83.507 99.6479 84.235 100.547 84.235Z" fill="#00A99D"/>
<path d="M101.38 79.8981H99.7163C99.4193 79.8981 99.1766 79.6622 99.1698 79.3679L98.9216 68.5236C98.9149 68.2199 99.1617 67.969 99.4681 67.969H101.628C101.935 67.969 102.182 68.2199 102.175 68.5236L101.927 79.3679C101.92 79.6622 101.677 79.8981 101.38 79.8981Z" fill="#00A99D"/>
<path fill-rule="evenodd" clip-rule="evenodd" d="M106.26 78.8582C106.243 79.1688 106.49 79.4318 106.802 79.4318V79.4332H108.212C108.49 79.4332 108.725 79.2217 108.751 78.945C108.825 78.1436 109.059 77.5144 109.45 77.0574C109.463 77.0425 109.476 77.0289 109.49 77.0154L110.815 75.7108C111.921 74.5582 112.476 73.3879 112.476 72.1987C112.476 70.863 112.066 69.8242 111.246 69.0798C110.427 68.3353 109.284 67.9637 107.819 67.9637C106.398 67.9637 105.256 68.3394 104.391 69.092C103.666 69.7225 103.24 70.5429 103.114 71.5546C103.074 71.8746 103.331 72.1553 103.653 72.1553H105.236C105.492 72.1553 105.721 71.9776 105.766 71.7254C105.838 71.3213 106.018 70.9877 106.304 70.7233C106.688 70.3707 107.193 70.1944 107.819 70.1944C108.474 70.1944 108.972 70.3734 109.311 70.7342C109.65 71.0949 109.819 71.6169 109.819 72.3004C109.819 72.8184 109.674 73.2984 109.383 73.7419C109.193 74.0334 108.743 74.5243 108.032 75.2132C107.321 75.9021 106.845 76.5353 106.605 77.1116C106.414 77.57 106.299 78.1517 106.26 78.8582ZM109.224 82.6091C109.224 83.5078 108.495 84.2364 107.597 84.2364C106.698 84.2364 105.969 83.5078 105.969 82.6091C105.969 81.7104 106.698 80.9819 107.597 80.9819C108.495 80.9819 109.224 81.7104 109.224 82.6091Z" fill="#00A99D"/>
<path opacity="0.2" fill-rule="evenodd" clip-rule="evenodd" d="M101.73 68.4178C101.714 68.4029 101.681 68.3758 101.628 68.3758H99.4681C99.4152 68.3758 99.3813 68.4016 99.3664 68.4178C99.3488 68.4368 99.3271 68.468 99.3284 68.5141L99.5766 79.3584C99.5779 79.4317 99.6403 79.4913 99.7162 79.4913H101.38C101.456 79.4913 101.518 79.4317 101.52 79.3584L101.768 68.5141C101.769 68.468 101.748 68.4368 101.73 68.4178ZM99.4681 67.969H101.628C101.935 67.969 102.182 68.2199 102.175 68.5236L101.927 79.3679C101.92 79.6622 101.677 79.8981 101.38 79.8981H99.7162C99.4193 79.8981 99.1765 79.6622 99.1698 79.3679L98.9216 68.5236C98.9148 68.2199 99.1616 67.969 99.4681 67.969ZM101.767 82.6077C101.767 81.9351 101.219 81.3886 100.547 81.3886C99.874 81.3886 99.3261 81.9351 99.3261 82.6077C99.3261 83.2803 99.874 83.8268 100.547 83.8268C101.219 83.8268 101.767 83.2803 101.767 82.6077ZM98.9193 82.6091C98.9193 81.7114 99.6475 80.9832 100.547 80.9832C101.446 80.9832 102.174 81.71 102.174 82.6091C102.174 83.5068 101.446 84.235 100.547 84.235C99.6475 84.235 98.9193 83.5068 98.9193 82.6091Z" fill="#00A99D"/>
<path d="M41 146.815H168.016V152.094C168.016 153.964 166.5 155.481 164.629 155.481H44.3871C42.5165 155.48 41 153.964 41 152.094V146.815Z" fill="#3A556A"/>
<path d="M118.056 140.771H90.9596L95.4843 132.468H113.532L118.056 140.771Z" fill="#E1E6E9"/>
<path d="M80.6062 102.561C79.8947 102.561 79.3203 103.135 79.3203 103.847C79.3203 104.558 79.8947 105.132 80.6062 105.132C81.3178 105.132 81.8921 104.558 81.8921 103.847C81.8921 103.135 81.3178 102.561 80.6062 102.561Z" fill="#00A99D"/>
<path d="M87.9073 94.7425L86.8871 96.1484C85.2155 94.8197 83.0151 94.0481 80.8377 93.9967H80.6062C78.343 93.9796 76.037 94.7597 74.3053 96.1484L73.2766 94.7425L73.6281 94.4853C75.5912 93.0537 78.1201 92.2479 80.6062 92.265C82.9637 92.2822 85.5755 93.0451 87.9073 94.7425Z" fill="#AFAFAF"/>
<path d="M85.8926 97.5115L84.8725 98.926C83.7323 97.9659 82.1492 97.4172 80.6061 97.4172H80.5719C79.0459 97.4258 77.46 97.9744 76.3284 98.926L75.2997 97.5115L75.6426 97.2629C77.0742 96.217 78.9259 95.6941 80.6061 95.6941C82.2864 95.6941 84.1181 96.217 85.5497 97.2629L85.8926 97.5115Z" fill="#AFAFAF"/>
<path d="M83.8781 100.289L82.8494 101.703C82.3008 101.18 81.4635 100.897 80.8034 100.855C80.7348 100.855 80.6748 100.846 80.6062 100.846C79.8861 100.846 78.9431 101.112 78.343 101.695L77.3143 100.289L77.6573 100.032C78.4802 99.4316 79.5947 99.1058 80.6063 99.123C81.6092 99.1486 82.8151 99.5087 83.8781 100.289Z" fill="#00A99D"/>
<path d="M104.725 102.582C104.033 102.582 103.474 103.141 103.474 103.834C103.474 104.526 104.033 105.086 104.725 105.086C105.418 105.086 105.977 104.526 105.977 103.834C105.977 103.141 105.418 102.582 104.725 102.582Z" fill="#00A99D"/>
<path d="M111.834 94.9701L110.84 96.3389C109.213 95.0452 107.071 94.294 104.951 94.244H104.725C102.522 94.2273 100.277 94.9868 98.5907 96.3389L97.5892 94.9701L97.9314 94.7197C99.8427 93.3259 102.305 92.5413 104.725 92.558C107.021 92.5747 109.563 93.3175 111.834 94.9701Z" fill="#00A99D"/>
<path d="M109.872 97.6658L108.879 99.043C107.769 98.1082 106.228 97.574 104.725 97.574H104.692C103.206 97.5823 101.662 98.1165 100.561 99.043L99.5591 97.6658L99.8929 97.4238C101.287 96.4055 103.09 95.8964 104.725 95.8964C106.361 95.8964 108.145 96.4055 109.539 97.4238L109.872 97.6658Z" fill="#00A99D"/>
<path d="M107.911 100.37L106.909 101.747C106.375 101.238 105.56 100.963 104.917 100.921C104.851 100.921 104.792 100.913 104.725 100.913C104.024 100.913 103.106 101.171 102.522 101.739L101.521 100.37L101.854 100.12C102.656 99.5355 103.741 99.2183 104.726 99.235C105.702 99.26 106.876 99.6106 107.911 100.37Z" fill="#00A99D"/>
<path d="M128.823 102.582C128.13 102.582 127.571 103.141 127.571 103.834C127.571 104.526 128.13 105.086 128.823 105.086C129.516 105.086 130.075 104.526 130.075 103.834C130.075 103.141 129.516 102.582 128.823 102.582Z" fill="#00A99D"/>
<path d="M135.931 94.9701L134.938 96.3389C133.31 95.0452 131.168 94.294 129.048 94.244H128.823C126.619 94.2273 124.374 94.9868 122.688 96.3389L121.687 94.9701L122.029 94.7197C123.94 93.3259 126.402 92.5413 128.823 92.558C131.118 92.5747 133.661 93.3175 135.931 94.9701Z" fill="#00A99D"/>
<path d="M133.97 97.6658L132.977 99.043C131.866 98.1082 130.325 97.574 128.823 97.574H128.789C127.304 97.5823 125.76 98.1165 124.658 99.043L123.656 97.6658L123.99 97.4238C125.384 96.4055 127.187 95.8964 128.823 95.8964C130.459 95.8964 132.242 96.4055 133.636 97.4238L133.97 97.6658Z" fill="#00A99D"/>
<path d="M132.008 100.37L131.007 101.747C130.473 101.238 129.658 100.963 129.015 100.921C128.948 100.921 128.89 100.913 128.823 100.913C128.122 100.913 127.204 101.171 126.619 101.739L125.618 100.37L125.952 100.12C126.753 99.5355 127.838 99.2183 128.823 99.235C129.799 99.26 130.974 99.6106 132.008 100.37Z" fill="#00A99D"/>
</g>
<defs>
<clipPath id="clip0">
<rect width="127.016" height="127.016" fill="white" transform="translate(41 41.5443)"/>
</clipPath>
</defs>
</svg>
