<svg width="204" height="204" viewBox="0 0 204 204" fill="none" xmlns="http://www.w3.org/2000/svg">
<circle cx="102" cy="102" r="100" stroke="#FFCA42" stroke-width="4"/>
<path d="M83.9999 106H56V58H83.9999V106Z" fill="#00A99D"/>
<path d="M84 56.0001H56.0001C54.8955 56.0001 54 56.8954 54 57.9999V106C54 107.104 54.8955 108 56.0001 108H84C85.1046 108 86.0001 107.104 86.0001 106V57.9999C86.0001 56.8954 85.1046 56.0001 84 56.0001ZM57.9999 60H81.9999V104H57.9999V60Z" fill="#3A556A"/>
<path d="M84 66.0001C87.4856 63.449 91.6809 62.0506 96 62.0002H133C136.857 61.9867 139.995 65.1026 140.008 68.9598C140.015 70.8991 139.215 72.7541 137.8 74.0802C141.619 74.4929 144.381 77.9238 143.969 81.7432C143.789 83.4022 143.02 84.9414 141.8 86.0802C145.62 86.4884 148.386 89.9161 147.977 93.7361C147.727 96.0813 146.305 98.1399 144.2 99.2043C147.953 101.535 149.106 106.468 146.775 110.221C145.32 112.565 142.759 113.993 140 114H112C114.197 119.775 115.545 125.838 116 132C116 139.5 109.5 146 106 146C103.841 145.969 101.746 145.27 99.9999 144V130L87.9999 104L84 102V66.0001Z" fill="#EDF5FF"/>
<path d="M133 60.0001H96.0001C91.1504 60.0387 86.4434 61.6469 82.5841 64.5841C82.2093 64.9598 81.9991 65.4693 82 66.0001V102C82 102.757 82.4273 103.449 83.104 103.788L86.476 105.476L97.9999 130.436V144C97.9986 144.608 98.2739 145.184 98.7479 145.564C100.853 147.111 103.388 147.962 106 148C110.628 148 118 140.676 118 132C117.698 126.542 116.62 121.155 114.8 116H140C145.523 116 150 111.523 150 106C150.006 103.518 149.078 101.125 147.4 99.2961C150.881 95.7916 150.862 90.1285 147.357 86.6474C146.684 85.9786 145.908 85.4211 145.06 84.9961C145.682 83.7548 146.004 82.3846 146 80.9961C145.996 77.6106 144.085 74.5159 141.059 72.9961C141.682 71.7548 142.004 70.3846 141.999 68.9961C141.991 64.0298 137.966 60.0066 133 60.0001ZM86.0001 66.916C89.0288 65.1036 92.4721 64.0996 96.0001 64H133C135.761 64.0023 137.998 66.2395 138 69.0001C138 70.3741 137.428 71.6858 136.42 72.6201C135.615 73.3769 135.577 74.6427 136.333 75.4473C136.658 75.7921 137.094 76.0107 137.564 76.0641C140.286 76.3518 142.259 78.7917 141.972 81.5136C141.846 82.7024 141.295 83.8056 140.42 84.6201C139.615 85.3769 139.577 86.6427 140.333 87.4473C140.658 87.7921 141.094 88.0107 141.564 88.0641C144.286 88.351 146.26 90.7902 145.973 93.5121C145.796 95.1959 144.771 96.6726 143.256 97.4281C142.274 97.9347 141.889 99.1409 142.396 100.123C142.562 100.446 142.814 100.717 143.124 100.908C145.936 102.661 146.795 106.361 145.043 109.173C143.956 110.917 142.054 111.983 140 112H112C110.895 112.001 110.001 112.896 110.001 114.001C110.001 114.244 110.046 114.485 110.132 114.712C112.24 120.261 113.542 126.082 114 132C114 138.552 108.192 144 106 144C104.597 143.977 103.222 143.605 102 142.916V130C102 129.71 101.937 129.424 101.816 129.16L89.8161 103.16C89.6256 102.749 89.3013 102.415 88.8961 102.212L86.0001 100.764V66.916Z" fill="#3A556A"/>
</svg>
