<svg width="210" height="210" viewBox="0 0 210 210" fill="none" xmlns="http://www.w3.org/2000/svg">
<circle cx="104.989" cy="104.797" r="102.168" stroke="#FFCA42" stroke-width="4.08672"/>
<rect x="60.0352" y="59.8428" width="89.9079" height="89.9079" fill="white" stroke="#00A99D" stroke-width="14.3035"/>
<path d="M85.7465 123.198L84.6949 91.3131C84.6627 90.3357 83.861 89.5601 82.8832 89.5601C81.9054 89.5601 81.1037 90.3356 81.0715 91.3131L80.0199 123.198L82.8832 124.386L85.7465 123.198Z" fill="#454D58"/>
<path d="M129.959 123.198L128.908 91.3131C128.876 90.3357 128.074 89.5601 127.096 89.5601C126.118 89.5601 125.317 90.3356 125.285 91.3131L124.233 123.198L127.096 124.386L129.959 123.198Z" fill="#454D58"/>
<path d="M79.9413 125.574L82.8831 126.762L85.8247 125.574L85.7464 123.198H80.0197L79.9413 125.574Z" fill="#3C434C"/>
<path d="M124.155 125.574L127.096 126.762L130.038 125.574L129.96 123.198H124.233L124.155 125.574Z" fill="#3C434C"/>
<path d="M74.8981 137.883H135.08C137.72 137.883 137.72 135.514 137.72 134.056V128.213C137.72 126.755 136.538 125.574 135.08 125.574H74.8981C73.4403 125.574 72.2585 126.755 72.2585 128.213V134.056C72.2585 135.514 72.2585 137.883 74.8981 137.883Z" fill="#F0F0F0"/>
<path d="M135.08 136.695H74.8981C73.4403 136.695 72.2585 135.514 72.2585 134.056V136.432C72.2585 137.889 73.4403 139.071 74.8981 139.071H135.08C136.538 139.071 137.72 137.889 137.72 136.432V134.056C137.72 135.514 136.538 136.695 135.08 136.695Z" fill="#DAD8DB"/>
<path d="M78.889 133.477C78.3411 133.477 77.8972 133.921 77.8972 134.469C77.8972 135.017 78.3411 135.461 78.889 135.461H82.0572C82.6051 135.461 83.049 135.017 83.049 134.469C83.049 133.921 82.6049 133.477 82.0572 133.477H78.889Z" fill="#FFBF00"/>
<path d="M89.5363 133.477H86.368C85.8201 133.477 85.3762 133.921 85.3762 134.469C85.3762 135.017 85.8201 135.461 86.368 135.461H89.5363C90.0841 135.461 90.5281 135.017 90.5281 134.469C90.5281 133.921 90.0841 133.477 89.5363 133.477Z" fill="#FFBF00"/>
<path d="M93.8471 133.477C93.2993 133.477 92.8553 133.921 92.8553 134.469C92.8553 135.017 93.2994 135.461 93.8471 135.461H97.0153C97.5632 135.461 98.0071 135.017 98.0071 134.469C98.0071 133.921 97.5631 133.477 97.0153 133.477H93.8471Z" fill="#FFBF00"/>
<path d="M101.326 133.477C100.778 133.477 100.334 133.921 100.334 134.469C100.334 135.017 100.778 135.461 101.326 135.461H104.494C105.042 135.461 105.486 135.017 105.486 134.469C105.486 133.921 105.042 133.477 104.494 133.477H101.326Z" fill="#FFBF00"/>
<path d="M123.748 135.461C124.296 135.461 124.74 135.017 124.74 134.469C124.74 133.922 124.295 133.478 123.748 133.478H120.58C120.032 133.478 119.588 133.922 119.588 134.469C119.588 135.017 120.032 135.461 120.58 135.461H123.748Z" fill="#DF667C"/>
<path d="M131.125 135.461C131.673 135.461 132.117 135.017 132.117 134.469C132.117 133.922 131.673 133.478 131.125 133.478H127.957C127.409 133.478 126.965 133.922 126.965 134.469C126.965 135.017 127.409 135.461 127.957 135.461H131.125Z" fill="#FFBF00"/>
<path d="M92.8476 104.831C99.5425 98.136 110.436 98.1363 117.132 104.831C117.325 105.025 117.579 105.122 117.833 105.122C118.087 105.122 118.341 105.025 118.534 104.831C118.922 104.444 118.922 103.816 118.534 103.429C111.066 95.9602 98.9136 95.9601 91.445 103.429C91.0577 103.816 91.0577 104.444 91.445 104.831C91.8323 105.218 92.4602 105.218 92.8476 104.831Z" fill="#00A99D"/>
<path d="M114.772 108.593C115.16 108.206 115.16 107.578 114.772 107.19C109.384 101.802 100.619 101.796 95.2231 107.174C94.9158 107.467 94.821 107.936 95.0206 108.335C95.1942 108.683 95.5446 108.884 95.9084 108.884C96.0575 108.884 96.2087 108.85 96.3513 108.779C96.4502 108.729 96.5384 108.665 96.6137 108.588C101.235 103.972 108.75 103.974 113.37 108.593C113.757 108.98 114.385 108.98 114.772 108.593Z" fill="#00A99D"/>
<path d="M110.38 112.574C110.634 112.574 110.888 112.477 111.081 112.284C111.469 111.897 111.469 111.269 111.081 110.881C109.454 109.254 107.291 108.358 104.989 108.358C102.688 108.358 100.525 109.254 98.8976 110.881C98.5104 111.269 98.5104 111.897 98.8976 112.284C99.2849 112.671 99.9128 112.671 100.3 112.284C101.553 111.031 103.218 110.342 104.989 110.342C106.761 110.342 108.426 111.031 109.679 112.284C109.872 112.478 110.126 112.574 110.38 112.574Z" fill="#00A99D"/>
<path d="M102.131 114.108C101.944 114.293 101.837 114.547 101.837 114.813C101.825 115.692 102.939 116.137 103.536 115.508C103.925 115.122 104.441 114.909 104.99 114.909C105.541 114.909 106.059 115.124 106.449 115.514C107.41 116.41 108.748 115.071 107.852 114.111C106.274 112.534 103.71 112.533 102.131 114.108Z" fill="#00A99D"/>
</svg>
