<svg width="204" height="204" viewBox="0 0 204 204" fill="none" xmlns="http://www.w3.org/2000/svg">
<path d="M201.051 102C201.051 157.237 156.483 202 101.526 202C46.5679 202 2 157.237 2 102C2 46.7627 46.5679 2 101.526 2C156.483 2 201.051 46.7627 201.051 102Z" stroke="#FFCA42" stroke-width="4"/>
<path d="M147.513 62.3047H101.5H55.5084L49 68.457V151.924C49 153.646 50.3535 155 52.0762 155H101.5H150.924C152.646 155 154 153.646 154 151.924V68.457L147.513 62.3047Z" fill="#EDF5FF"/>
<path d="M150.924 50H101.5H52.0762C50.3535 50 49 51.3535 49 53.0762V68.457H101.5H154V53.0762C154 51.3535 152.646 50 150.924 50Z" fill="#00A99D"/>
<path d="M113.805 62.3047C115.504 62.3047 116.881 60.9274 116.881 59.2285C116.881 57.5296 115.504 56.1523 113.805 56.1523C112.106 56.1523 110.729 57.5296 110.729 59.2285C110.729 60.9274 112.106 62.3047 113.805 62.3047Z" fill="#D0E4E7"/>
<path d="M126.109 62.3047C127.808 62.3047 129.186 60.9274 129.186 59.2285C129.186 57.5296 127.808 56.1523 126.109 56.1523C124.41 56.1523 123.033 57.5296 123.033 59.2285C123.033 60.9274 124.41 62.3047 126.109 62.3047Z" fill="#D0E4E7"/>
<path d="M138.414 62.3047C140.113 62.3047 141.49 60.9274 141.49 59.2285C141.49 57.5296 140.113 56.1523 138.414 56.1523C136.715 56.1523 135.338 57.5296 135.338 59.2285C135.338 60.9274 136.715 62.3047 138.414 62.3047Z" fill="#D0E4E7"/>
<path d="M138.414 80.9668H101.5H64.5859C62.8854 80.9668 61.5098 82.3425 61.5098 84.043V139.414C61.5098 141.115 62.8854 142.49 64.5859 142.49H101.5H138.414C140.115 142.49 141.49 141.115 141.49 139.414V84.043C141.49 82.3425 140.115 80.9668 138.414 80.9668Z" fill="#00A99D"/>
<path d="M101.5 93.2715C91.322 93.2715 83.043 101.551 83.043 111.729C83.043 121.906 91.322 130.186 101.5 130.186C111.678 130.186 119.957 121.906 119.957 111.729C119.957 101.551 111.678 93.2715 101.5 93.2715ZM89.1953 111.729C89.1953 104.942 94.714 99.4238 101.5 99.4238C103.775 99.4238 105.881 100.086 107.711 101.167L101.5 107.379L90.9383 117.94C89.8579 116.11 89.1953 114.004 89.1953 111.729ZM101.5 124.033C99.2247 124.033 97.1181 123.371 95.2886 122.29L101.5 116.078L112.062 105.517C113.142 107.347 113.805 109.453 113.805 111.729C113.805 118.515 108.286 124.033 101.5 124.033Z" fill="#EDF5FF"/>
</svg>
