<svg width="199" height="199" viewBox="0 0 199 199" fill="none" xmlns="http://www.w3.org/2000/svg">
<circle cx="99.5001" cy="99.5593" r="97.1649" stroke="#FFCA42" stroke-width="3.8866"/>
<g clip-path="url(#clip0)">
<path d="M99.5927 124.695C94.9616 124.695 91.2236 128.433 91.2236 133.064C91.2236 137.695 94.9616 141.433 99.5927 141.433C104.224 141.433 107.962 137.695 107.962 133.064C107.962 128.433 104.224 124.695 99.5927 124.695Z" fill="#00A99D"/>
<path d="M147.111 73.8114L140.472 82.9614C129.592 74.3133 115.271 69.2921 101.099 68.9575H99.5928C84.8632 68.8457 69.8546 73.923 58.5841 82.9614L51.8892 73.8114L54.1765 72.1374C66.9531 62.82 83.4124 57.5752 99.5928 57.6869C114.936 57.7985 131.935 62.764 147.111 73.8114Z" fill="#AFAFAF"/>
<path d="M133.999 91.8326L127.36 101.039C119.939 94.7899 109.636 91.219 99.5931 91.219H99.3699C89.4384 91.2748 79.1167 94.8455 71.7519 101.039L65.0566 91.8326L67.2882 90.2148C76.606 83.4077 88.6573 80.0043 99.5931 80.0043C110.529 80.0043 122.45 83.4077 131.768 90.2148L133.999 91.8326Z" fill="#AFAFAF"/>
<path d="M120.888 109.91L114.192 119.116C110.622 115.712 105.172 113.871 100.876 113.592C100.43 113.592 100.039 113.537 99.5931 113.537C94.9062 113.537 88.7691 115.266 84.8635 119.06L78.1682 109.91L80.4002 108.236C85.7562 104.331 93.0096 102.21 99.5933 102.322C106.121 102.489 113.97 104.833 120.888 109.91Z" fill="#00A99D"/>
</g>
<defs>
<clipPath id="clip0">
<rect width="95.2216" height="95.2216" fill="white" transform="translate(51.8892 51.9485)"/>
</clipPath>
</defs>
</svg>
