<svg width="208" height="208" viewBox="0 0 208 208" fill="none" xmlns="http://www.w3.org/2000/svg">
<circle cx="104" cy="104.03" r="101.075" stroke="#FFCA42" stroke-width="4.04301"/>
<path d="M47.5108 133.917L46.4776 102.588C46.4459 101.627 45.6582 100.865 44.6974 100.865C43.7366 100.865 42.949 101.627 42.9173 102.588L41.884 133.917L44.6974 135.084L47.5108 133.917Z" fill="#454D58"/>
<path d="M90.9535 133.917L89.9202 102.588C89.8885 101.627 89.1008 100.865 88.1401 100.865C87.1793 100.865 86.3916 101.627 86.3599 102.588L85.3267 133.917L88.1401 135.084L90.9535 133.917Z" fill="#454D58"/>
<path d="M41.8069 136.251L44.6974 137.418L47.5878 136.251L47.5108 133.917H41.8839L41.8069 136.251Z" fill="#3C434C"/>
<path d="M85.2498 136.251L88.1402 137.418L91.0306 136.251L90.9536 133.917H85.3268L85.2498 136.251Z" fill="#3C434C"/>
<path d="M36.8516 148.346H95.9851C98.5787 148.346 98.5787 146.018 98.5787 144.586V138.845C98.5787 137.413 97.4175 136.251 95.9851 136.251H36.8516C35.4192 136.251 34.2581 137.413 34.2581 138.845V144.586C34.2581 146.018 34.2581 148.346 36.8516 148.346Z" fill="#F0F0F0"/>
<path d="M95.9851 147.179H36.8516C35.4192 147.179 34.2581 146.018 34.2581 144.586V146.92C34.2581 148.352 35.4192 149.514 36.8516 149.514H95.9851C97.4175 149.514 98.5787 148.352 98.5787 146.92V144.586C98.5787 146.018 97.4175 147.179 95.9851 147.179Z" fill="#DAD8DB"/>
<path d="M40.7733 144.017C40.235 144.017 39.7988 144.454 39.7988 144.992C39.7988 145.53 40.235 145.966 40.7733 145.966H43.8863C44.4246 145.966 44.8608 145.53 44.8608 144.992C44.8608 144.454 44.4245 144.017 43.8863 144.017H40.7733Z" fill="#FFBF00"/>
<path d="M51.2353 144.017H48.1222C47.5839 144.017 47.1477 144.454 47.1477 144.992C47.1477 145.53 47.5839 145.966 48.1222 145.966H51.2353C51.7735 145.966 52.2098 145.53 52.2098 144.992C52.2098 144.454 51.7735 144.017 51.2353 144.017Z" fill="#FFBF00"/>
<path d="M55.4708 144.017C54.9325 144.017 54.4963 144.454 54.4963 144.992C54.4963 145.53 54.9326 145.966 55.4708 145.966H58.5838C59.1221 145.966 59.5583 145.53 59.5583 144.992C59.5583 144.454 59.122 144.017 58.5838 144.017H55.4708Z" fill="#FFBF00"/>
<path d="M62.8197 144.017C62.2814 144.017 61.8452 144.454 61.8452 144.992C61.8452 145.53 62.2814 145.966 62.8197 145.966H65.9327C66.471 145.966 66.9072 145.53 66.9072 144.992C66.9072 144.454 66.4709 144.017 65.9327 144.017H62.8197Z" fill="#FFBF00"/>
<path d="M84.8504 145.966C85.3887 145.966 85.8249 145.53 85.8249 144.992C85.8249 144.454 85.3886 144.017 84.8504 144.017H81.7374C81.1991 144.017 80.7629 144.454 80.7629 144.992C80.7629 145.53 81.1992 145.966 81.7374 145.966H84.8504Z" fill="#DF667C"/>
<path d="M92.0992 145.966C92.6375 145.966 93.0737 145.53 93.0737 144.992C93.0737 144.454 92.6374 144.017 92.0992 144.017H88.9862C88.4479 144.017 88.0117 144.454 88.0117 144.992C88.0117 145.53 88.448 145.966 88.9862 145.966H92.0992Z" fill="#FFBF00"/>
<path d="M54.4887 115.87C61.067 109.292 71.7711 109.292 78.3495 115.87C78.5398 116.061 78.7893 116.156 79.0387 116.156C79.2881 116.156 79.5374 116.061 79.7279 115.87C80.1084 115.49 80.1084 114.873 79.7279 114.492C72.3896 107.154 60.449 107.154 53.1106 114.492C52.7301 114.873 52.7301 115.49 53.1106 115.87C53.4911 116.251 54.1081 116.251 54.4887 115.87Z" fill="#00A99D"/>
<path d="M76.0316 119.566C76.4121 119.186 76.4121 118.569 76.0316 118.188C70.7367 112.894 62.1246 112.888 56.8228 118.172C56.5209 118.46 56.4277 118.921 56.6238 119.313C56.7944 119.655 57.1388 119.852 57.4962 119.852C57.6427 119.852 57.7913 119.819 57.9313 119.749C58.0286 119.701 58.1153 119.637 58.1893 119.562C62.7301 115.026 70.1143 115.028 74.6532 119.566C75.0338 119.947 75.6508 119.947 76.0316 119.566Z" fill="#00A99D"/>
<path d="M71.7156 123.479C71.9649 123.479 72.2143 123.383 72.4046 123.193C72.7852 122.813 72.7852 122.196 72.4046 121.815C70.8059 120.216 68.6801 119.336 66.4189 119.336C64.1579 119.336 62.0322 120.216 60.4333 121.815C60.0528 122.196 60.0528 122.813 60.4333 123.193C60.8139 123.574 61.4308 123.574 61.8116 123.193C63.0422 121.963 64.6786 121.285 66.4189 121.285C68.1595 121.285 69.7956 121.963 71.0264 123.193C71.2168 123.383 71.4661 123.479 71.7156 123.479Z" fill="#00A99D"/>
<path d="M63.6106 124.985C63.4262 125.168 63.3214 125.417 63.3214 125.678C63.3093 126.542 64.4038 126.979 64.9906 126.361C65.3729 125.982 65.8799 125.773 66.419 125.773C66.9607 125.773 67.4698 125.984 67.8529 126.367C68.7969 127.248 70.1115 125.932 69.2311 124.989C67.6815 123.439 65.1614 123.438 63.6106 124.985Z" fill="#00A99D"/>
<path d="M122.029 133.917L120.995 102.588C120.964 101.627 120.176 100.865 119.215 100.865C118.254 100.865 117.467 101.627 117.435 102.588L116.402 133.917L119.215 135.084L122.029 133.917Z" fill="#454D58"/>
<path d="M165.472 133.917L164.438 102.588C164.407 101.627 163.619 100.865 162.658 100.865C161.697 100.865 160.91 101.627 160.878 102.588L159.845 133.917L162.658 135.084L165.472 133.917Z" fill="#454D58"/>
<path d="M116.325 136.251L119.215 137.418L122.106 136.251L122.029 133.917H116.402L116.325 136.251Z" fill="#3C434C"/>
<path d="M159.768 136.251L162.658 137.418L165.548 136.251L165.471 133.917H159.845L159.768 136.251Z" fill="#3C434C"/>
<path d="M111.369 148.346H170.503C173.096 148.346 173.096 146.018 173.096 144.586V138.845C173.096 137.413 171.935 136.251 170.503 136.251H111.369C109.937 136.251 108.776 137.413 108.776 138.845V144.586C108.776 146.018 108.776 148.346 111.369 148.346Z" fill="#F0F0F0"/>
<path d="M170.503 147.179H111.369C109.937 147.179 108.776 146.018 108.776 144.586V146.92C108.776 148.352 109.937 149.514 111.369 149.514H170.503C171.935 149.514 173.096 148.352 173.096 146.92V144.586C173.096 146.018 171.935 147.179 170.503 147.179Z" fill="#DAD8DB"/>
<path d="M115.291 144.017C114.753 144.017 114.317 144.454 114.317 144.992C114.317 145.53 114.753 145.966 115.291 145.966H118.404C118.942 145.966 119.379 145.53 119.379 144.992C119.379 144.454 118.942 144.017 118.404 144.017H115.291Z" fill="#FFBF00"/>
<path d="M125.753 144.017H122.64C122.102 144.017 121.666 144.454 121.666 144.992C121.666 145.53 122.102 145.966 122.64 145.966H125.753C126.291 145.966 126.728 145.53 126.728 144.992C126.728 144.454 126.291 144.017 125.753 144.017Z" fill="#FFBF00"/>
<path d="M129.989 144.017C129.45 144.017 129.014 144.454 129.014 144.992C129.014 145.53 129.45 145.966 129.989 145.966H133.102C133.64 145.966 134.076 145.53 134.076 144.992C134.076 144.454 133.64 144.017 133.102 144.017H129.989Z" fill="#FFBF00"/>
<path d="M137.337 144.017C136.799 144.017 136.363 144.454 136.363 144.992C136.363 145.53 136.799 145.966 137.337 145.966H140.45C140.989 145.966 141.425 145.53 141.425 144.992C141.425 144.454 140.988 144.017 140.45 144.017H137.337Z" fill="#FFBF00"/>
<path d="M159.368 145.966C159.907 145.966 160.343 145.53 160.343 144.992C160.343 144.454 159.906 144.017 159.368 144.017H156.255C155.717 144.017 155.281 144.454 155.281 144.992C155.281 145.53 155.717 145.966 156.255 145.966H159.368Z" fill="#DF667C"/>
<path d="M166.617 145.966C167.155 145.966 167.592 145.53 167.592 144.992C167.592 144.454 167.155 144.017 166.617 144.017H163.504C162.966 144.017 162.53 144.454 162.53 144.992C162.53 145.53 162.966 145.966 163.504 145.966H166.617Z" fill="#FFBF00"/>
<path d="M129.007 115.87C135.585 109.292 146.289 109.292 152.867 115.87C153.058 116.061 153.307 116.156 153.557 116.156C153.806 116.156 154.055 116.061 154.246 115.87C154.626 115.49 154.626 114.873 154.246 114.492C146.907 107.154 134.967 107.154 127.628 114.492C127.248 114.873 127.248 115.49 127.628 115.87C128.009 116.251 128.626 116.251 129.007 115.87Z" fill="#00A99D"/>
<path d="M150.549 119.566C150.93 119.186 150.93 118.569 150.549 118.188C145.254 112.894 136.642 112.888 131.341 118.172C131.039 118.46 130.946 118.921 131.142 119.313C131.312 119.655 131.657 119.852 132.014 119.852C132.16 119.852 132.309 119.819 132.449 119.749C132.546 119.701 132.633 119.637 132.707 119.562C137.248 115.026 144.632 115.028 149.171 119.566C149.552 119.947 150.169 119.947 150.549 119.566Z" fill="#00A99D"/>
<path d="M146.233 123.479C146.483 123.479 146.732 123.383 146.922 123.193C147.303 122.813 147.303 122.196 146.922 121.815C145.324 120.216 143.198 119.336 140.937 119.336C138.676 119.336 136.55 120.216 134.951 121.815C134.571 122.196 134.571 122.813 134.951 123.193C135.332 123.574 135.949 123.574 136.329 123.193C137.56 121.963 139.196 121.285 140.937 121.285C142.677 121.285 144.313 121.963 145.544 123.193C145.735 123.383 145.984 123.479 146.233 123.479Z" fill="#00A99D"/>
<path d="M138.129 124.985C137.944 125.168 137.839 125.417 137.839 125.678C137.827 126.542 138.922 126.979 139.509 126.361C139.891 125.982 140.398 125.773 140.937 125.773C141.479 125.773 141.988 125.984 142.371 126.367C143.315 127.248 144.63 125.932 143.749 124.989C142.2 123.439 139.68 123.438 138.129 124.985Z" fill="#00A99D"/>
<path d="M85.5416 78.4579L84.5083 47.1285C84.4767 46.1682 83.689 45.406 82.7282 45.406C81.7674 45.406 80.9797 46.1681 80.9481 47.1285L79.9148 78.4579L82.7282 79.625L85.5416 78.4579Z" fill="#454D58"/>
<path d="M128.984 78.4579L127.951 47.1285C127.919 46.1682 127.132 45.406 126.171 45.406C125.21 45.406 124.422 46.1681 124.391 47.1285L123.357 78.4579L126.171 79.625L128.984 78.4579Z" fill="#454D58"/>
<path d="M79.8376 80.7919L82.7282 81.9591L85.6186 80.7919L85.5416 78.4578H79.9147L79.8376 80.7919Z" fill="#3C434C"/>
<path d="M123.281 80.7919L126.171 81.9591L129.061 80.7919L128.984 78.4578H123.358L123.281 80.7919Z" fill="#3C434C"/>
<path d="M74.8824 92.8873H134.016C136.609 92.8873 136.609 90.5589 136.609 89.1265V83.3858C136.609 81.9534 135.448 80.7922 134.016 80.7922H74.8824C73.45 80.7921 72.2888 81.9534 72.2888 83.3858V89.1267C72.2888 90.5589 72.2888 92.8873 74.8824 92.8873Z" fill="#F0F0F0"/>
<path d="M134.016 91.72H74.8824C73.45 91.72 72.2888 90.5589 72.2888 89.1265V91.4607C72.2888 92.8931 73.45 94.0543 74.8824 94.0543H134.016C135.448 94.0543 136.609 92.8931 136.609 91.4607V89.1265C136.609 90.5589 135.448 91.72 134.016 91.72Z" fill="#DAD8DB"/>
<path d="M78.8041 88.558C78.2658 88.558 77.8296 88.9943 77.8296 89.5325C77.8296 90.0706 78.2658 90.5069 78.8041 90.5069H81.9171C82.4554 90.5069 82.8916 90.0706 82.8916 89.5325C82.8916 88.9943 82.4553 88.558 81.9171 88.558H78.8041Z" fill="#FFBF00"/>
<path d="M89.2659 88.558H86.1527C85.6144 88.558 85.1782 88.9943 85.1782 89.5325C85.1782 90.0706 85.6144 90.5069 86.1527 90.5069H89.2659C89.804 90.5069 90.2403 90.0706 90.2403 89.5325C90.2403 88.9943 89.804 88.558 89.2659 88.558Z" fill="#FFBF00"/>
<path d="M93.5018 88.558C92.9635 88.558 92.5273 88.9943 92.5273 89.5325C92.5273 90.0706 92.9636 90.5069 93.5018 90.5069H96.6148C97.1531 90.5069 97.5893 90.0706 97.5893 89.5325C97.5893 88.9943 97.153 88.558 96.6148 88.558H93.5018Z" fill="#FFBF00"/>
<path d="M100.85 88.558C100.312 88.558 99.876 88.9943 99.876 89.5325C99.876 90.0706 100.312 90.5069 100.85 90.5069H103.963C104.502 90.5069 104.938 90.0706 104.938 89.5325C104.938 88.9943 104.502 88.558 103.963 88.558H100.85Z" fill="#FFBF00"/>
<path d="M122.881 90.5071C123.42 90.5071 123.856 90.0708 123.856 89.5326C123.856 88.9944 123.419 88.5581 122.881 88.5581H119.768C119.23 88.5581 118.794 88.9944 118.794 89.5326C118.794 90.0708 119.23 90.5071 119.768 90.5071H122.881Z" fill="#DF667C"/>
<path d="M130.13 90.5071C130.668 90.5071 131.104 90.0708 131.104 89.5326C131.104 88.9944 130.668 88.5581 130.13 88.5581H127.017C126.479 88.5581 126.042 88.9944 126.042 89.5326C126.042 90.0708 126.479 90.5071 127.017 90.5071H130.13Z" fill="#FFBF00"/>
<path d="M92.5195 60.411C99.0978 53.8324 109.802 53.8327 116.38 60.411C116.571 60.6012 116.82 60.6964 117.069 60.6964C117.319 60.6964 117.568 60.6012 117.759 60.411C118.139 60.0304 118.139 59.4134 117.759 59.0328C110.42 51.6945 98.4798 51.6944 91.1413 59.0328C90.7608 59.4134 90.7608 60.0304 91.1413 60.411C91.5219 60.7915 92.1388 60.7915 92.5195 60.411Z" fill="#00A99D"/>
<path d="M114.062 64.1071C114.443 63.7266 114.443 63.1095 114.062 62.729C108.767 57.4342 100.155 57.4289 94.8536 62.7128C94.5517 63.0003 94.4585 63.4618 94.6546 63.8541C94.8252 64.1956 95.1695 64.393 95.5269 64.393C95.6734 64.393 95.822 64.3599 95.9621 64.2899C96.0593 64.2413 96.146 64.1777 96.22 64.1027C100.761 59.5666 108.145 59.5684 112.684 64.1071C113.065 64.4876 113.682 64.4876 114.062 64.1071Z" fill="#00A99D"/>
<path d="M109.746 68.0195C109.996 68.0195 110.245 67.9243 110.435 67.7341C110.816 67.3535 110.816 66.7365 110.435 66.3559C108.837 64.7571 106.711 63.8766 104.45 63.8766C102.189 63.8766 100.063 64.7571 98.4641 66.3559C98.0836 66.7365 98.0836 67.3535 98.4641 67.7341C98.8446 68.1147 99.4616 68.1147 99.8423 67.7341C101.073 66.5034 102.709 65.8257 104.45 65.8257C106.19 65.8257 107.826 66.5034 109.057 67.7341C109.248 67.9244 109.497 68.0195 109.746 68.0195Z" fill="#00A99D"/>
<path d="M101.641 69.5258C101.457 69.7082 101.352 69.9576 101.352 70.2186C101.34 71.0822 102.435 71.5193 103.021 70.902C103.404 70.5224 103.911 70.3135 104.45 70.3135C104.991 70.3135 105.501 70.5244 105.884 70.9074C106.828 71.7881 108.142 70.4724 107.262 69.5293C105.712 67.9798 103.192 67.9787 101.641 69.5258Z" fill="#00A99D"/>
</svg>
