<svg width="376" height="75" viewBox="0 0 376 75" fill="none" xmlns="http://www.w3.org/2000/svg">
<rect width="376" height="74.2109" rx="37.1055" fill="url(#paint0_linear)"/>
<path d="M101.248 38.709C101.248 39.6296 101.185 40.4727 101.057 41.2383C100.929 42.0039 100.733 42.7422 100.469 43.4531C99.9769 44.7747 99.1885 45.873 98.1039 46.748C97.3018 47.3678 96.4268 47.8327 95.4789 48.1426C95.014 48.2793 94.4808 48.3841 93.8793 48.457C93.2868 48.5299 92.5804 48.5664 91.7601 48.5664H82.4086V39.6113H80.3578V36.8086H82.4086V28.1543H91.6644C94.9183 28.1543 97.3291 29.0156 98.8968 30.7383C100.465 32.4518 101.248 35.1087 101.248 38.709ZM96.1215 38.3535C96.1215 35.9837 95.807 34.3841 95.1781 33.5547C94.5583 32.7161 93.3962 32.2969 91.6918 32.2969H87.1937V36.8086H91.7875V39.6113H87.1937V44.4238H91.6918C93.378 44.4238 94.5355 44.0046 95.1644 43.166C95.8024 42.3457 96.1215 40.7415 96.1215 38.3535ZM123.054 48.5801H117.681L115.89 43.8906H107.906L106.17 48.5801H101.015L109.56 28.1543H114.428L123.054 48.5801ZM114.263 39.666L111.83 33.4453L109.506 39.666H114.263ZM109.916 23.2188C109.916 23.638 110.107 24.0117 110.49 24.3398C110.873 24.6315 111.388 24.7773 112.035 24.7773C112.709 24.7773 113.211 24.6497 113.539 24.3945C113.849 24.1393 114.058 23.7474 114.168 23.2188H116.355C116.355 24.5221 115.959 25.5111 115.166 26.1855C114.391 26.8509 113.347 27.1836 112.035 27.1836C110.677 27.1836 109.624 26.8691 108.877 26.2402C108.102 25.6022 107.715 24.5951 107.715 23.2188H109.916ZM141.962 48.5801H136.644L128.796 34.6621L128.96 48.5801H124.093V28.1543H129.835L137.232 41.3203L137.068 28.1543H141.962V48.5801ZM163.235 48.5664H154.048C153.227 48.5664 152.503 48.5299 151.874 48.457C151.217 48.3841 150.657 48.2793 150.192 48.1426C149.308 47.8509 148.456 47.3861 147.635 46.748C146.596 45.873 145.822 44.7747 145.311 43.4531C144.792 42.1224 144.532 40.541 144.532 38.709C144.532 35.127 145.316 32.4701 146.883 30.7383C148.433 29.0156 150.821 28.1543 154.048 28.1543H163.235V32.2422H154.048C152.598 32.2422 151.527 32.7253 150.835 33.6914C150.142 34.6484 149.796 36.2572 149.796 38.5176C149.796 40.5684 150.128 42.0495 150.794 42.9609C151.468 43.8633 152.553 44.3145 154.048 44.3145H158.327V40.3633H152.844V36.1934H163.235V48.5664ZM191.849 48.5801H185.711L178.793 39.4746V48.5801H174.007V28.1543H178.793V36.9453L185.943 28.1543H191.767L183.673 38.1211L191.849 48.5801ZM204.933 22.5078L199.409 27.0059H196.729L199.833 22.5078H204.933ZM209.718 28.1543L201.911 39.584V48.5801H197.126V39.6113L189.36 28.1543H194.856L199.478 35.3867L204.126 28.1543H209.718ZM235.611 48.5801H230.293L222.445 34.6621L222.609 48.5801H217.742V28.1543H223.484L230.881 41.3203L230.717 28.1543H235.611V48.5801ZM256.884 48.5664H247.697C246.876 48.5664 246.152 48.5299 245.523 48.457C244.867 48.3841 244.306 48.2793 243.841 48.1426C242.957 47.8509 242.105 47.3861 241.284 46.748C240.245 45.873 239.471 44.7747 238.96 43.4531C238.441 42.1224 238.181 40.541 238.181 38.709C238.181 35.127 238.965 32.4701 240.533 30.7383C242.082 29.0156 244.47 28.1543 247.697 28.1543H256.884V32.2422H247.697C246.247 32.2422 245.176 32.7253 244.484 33.6914C243.791 34.6484 243.445 36.2572 243.445 38.5176C243.445 40.5684 243.777 42.0495 244.443 42.9609C245.117 43.8633 246.202 44.3145 247.697 44.3145H251.976V40.3633H246.493V36.1934H256.884V48.5664ZM279.305 48.5801H273.932L272.141 43.8906H264.157L262.421 48.5801H257.266L265.811 28.1543H270.678L279.305 48.5801ZM270.514 39.666L268.081 33.4453L265.757 39.666H270.514ZM297.256 28.1543L289.449 39.584V48.5801H284.664V39.6113L276.899 28.1543H282.395L287.016 35.3867L291.664 28.1543H297.256Z" fill="white"/>
<defs>
<linearGradient id="paint0_linear" x1="-24.8118" y1="-0.496169" x2="165.633" y2="271.37" gradientUnits="userSpaceOnUse">
<stop stop-color="#B9EB79"/>
<stop offset="0.2865" stop-color="#35BDBC"/>
<stop offset="0.6541" stop-color="#0D72B9"/>
<stop offset="1" stop-color="#221F72"/>
</linearGradient>
</defs>
</svg>
