<svg width="372" height="72" viewBox="0 0 372 72" fill="none" xmlns="http://www.w3.org/2000/svg">
<rect y="0.679199" width="372" height="70.8523" rx="35.4261" fill="#FFFEFE"/>
<path d="M86.855 38.1406C86.855 39.1927 86.7821 40.1562 86.6363 41.0312C86.4904 41.9062 86.2665 42.75 85.9644 43.5625C85.4019 45.0729 84.5008 46.3281 83.2613 47.3281C82.3446 48.0365 81.3446 48.5677 80.2613 48.9219C79.73 49.0781 79.1206 49.1979 78.4331 49.2812C77.756 49.3646 76.9488 49.4062 76.0113 49.4062H65.3238V39.1719H62.98V35.9688H65.3238V26.0781H75.9019C79.6206 26.0781 82.3758 27.0625 84.1675 29.0312C85.9592 30.9896 86.855 34.026 86.855 38.1406ZM80.9956 37.7344C80.9956 35.026 80.6363 33.1979 79.9175 32.25C79.2092 31.2917 77.881 30.8125 75.9331 30.8125H70.7925V35.9688H76.0425V39.1719H70.7925V44.6719H75.9331C77.8602 44.6719 79.1831 44.1927 79.9019 43.2344C80.631 42.2969 80.9956 40.4635 80.9956 37.7344ZM111.776 49.4219H105.636L103.589 44.0625H94.4638L92.4794 49.4219H86.5888L96.3544 26.0781H101.917L111.776 49.4219ZM101.729 39.2344L98.9481 32.125L96.2919 39.2344H101.729ZM96.7606 20.4375C96.7606 20.9167 96.9794 21.3438 97.4169 21.7188C97.8544 22.0521 98.4429 22.2188 99.1825 22.2188C99.9533 22.2188 100.526 22.0729 100.901 21.7812C101.255 21.4896 101.495 21.0417 101.62 20.4375H104.12C104.12 21.9271 103.667 23.0573 102.761 23.8281C101.875 24.5885 100.683 24.9688 99.1825 24.9688C97.6304 24.9688 96.4273 24.6094 95.5731 23.8906C94.6877 23.1615 94.245 22.0104 94.245 20.4375H96.7606ZM133.385 49.4219H127.307L118.338 33.5156L118.526 49.4219H112.963V26.0781H119.526L127.979 41.125L127.791 26.0781H133.385V49.4219ZM157.697 49.4062H147.197C146.259 49.4062 145.431 49.3646 144.713 49.2812C143.963 49.1979 143.322 49.0781 142.791 48.9219C141.78 48.5885 140.806 48.0573 139.869 47.3281C138.681 46.3281 137.796 45.0729 137.213 43.5625C136.619 42.0417 136.322 40.2344 136.322 38.1406C136.322 34.0469 137.218 31.0104 139.009 29.0312C140.78 27.0625 143.509 26.0781 147.197 26.0781H157.697V30.75H147.197C145.541 30.75 144.317 31.3021 143.525 32.4062C142.733 33.5 142.338 35.3385 142.338 37.9219C142.338 40.2656 142.718 41.9583 143.478 43C144.249 44.0312 145.489 44.5469 147.197 44.5469H152.088V40.0312H145.822V35.2656H157.697V49.4062ZM190.399 49.4219H183.383L175.477 39.0156V49.4219H170.008V26.0781H175.477V36.125L183.649 26.0781H190.305L181.055 37.4688L190.399 49.4219ZM205.351 19.625L199.039 24.7656H195.976L199.523 19.625H205.351ZM210.82 26.0781L201.898 39.1406V49.4219H196.429V39.1719L187.554 26.0781H193.836L199.117 34.3438L204.429 26.0781H210.82ZM240.413 49.4219H234.334L225.366 33.5156L225.553 49.4219H219.991V26.0781H226.553L235.006 41.125L234.819 26.0781H240.413V49.4219ZM264.724 49.4062H254.224C253.287 49.4062 252.459 49.3646 251.74 49.2812C250.99 49.1979 250.349 49.0781 249.818 48.9219C248.808 48.5885 247.834 48.0573 246.896 47.3281C245.709 46.3281 244.823 45.0729 244.24 43.5625C243.646 42.0417 243.349 40.2344 243.349 38.1406C243.349 34.0469 244.245 31.0104 246.037 29.0312C247.808 27.0625 250.537 26.0781 254.224 26.0781H264.724V30.75H254.224C252.568 30.75 251.344 31.3021 250.552 32.4062C249.761 33.5 249.365 35.3385 249.365 37.9219C249.365 40.2656 249.745 41.9583 250.506 43C251.276 44.0312 252.516 44.5469 254.224 44.5469H259.115V40.0312H252.849V35.2656H264.724V49.4062ZM290.349 49.4219H284.208L282.161 44.0625H273.036L271.052 49.4219H265.161L274.927 26.0781H280.489L290.349 49.4219ZM280.302 39.2344L277.521 32.125L274.864 39.2344H280.302ZM310.864 26.0781L301.942 39.1406V49.4219H296.473V39.1719L287.598 26.0781H293.879L299.161 34.3438L304.473 26.0781H310.864Z" fill="url(#paint0_linear)"/>
<defs>
<linearGradient id="paint0_linear" x1="46.7667" y1="13.6858" x2="165.994" y2="189.51" gradientUnits="userSpaceOnUse">
<stop stop-color="#B9EB79"/>
<stop offset="0.2865" stop-color="#35BDBC"/>
<stop offset="0.6541" stop-color="#0D72B9"/>
<stop offset="1" stop-color="#221F72"/>
</linearGradient>
</defs>
</svg>
