<svg width="32" height="32" viewBox="0 0 32 32" fill="none" xmlns="http://www.w3.org/2000/svg">
<path d="M16 20C18.2091 20 20 18.2091 20 16C20 13.7909 18.2091 12 16 12C13.7909 12 12 13.7909 12 16C12 18.2091 13.7909 20 16 20Z" stroke="url(#paint0_linear)" stroke-width="2.5" stroke-linecap="round" stroke-linejoin="round"/>
<path d="M25.8666 19.9999C25.6891 20.4021 25.6362 20.8482 25.7146 21.2807C25.793 21.7132 25.9992 22.1123 26.3066 22.4266L26.3866 22.5066C26.6345 22.7542 26.8312 23.0483 26.9654 23.3721C27.0996 23.6958 27.1687 24.0428 27.1687 24.3933C27.1687 24.7437 27.0996 25.0907 26.9654 25.4144C26.8312 25.7382 26.6345 26.0323 26.3866 26.2799C26.1389 26.5279 25.8448 26.7245 25.5211 26.8587C25.1974 26.9929 24.8504 27.062 24.4999 27.062C24.1495 27.062 23.8025 26.9929 23.4787 26.8587C23.155 26.7245 22.8609 26.5279 22.6132 26.2799L22.5333 26.1999C22.219 25.8925 21.8199 25.6863 21.3874 25.6079C20.9548 25.5295 20.5087 25.5824 20.1066 25.7599C19.7122 25.9289 19.3759 26.2096 19.139 26.5673C18.9021 26.925 18.775 27.3442 18.7733 27.7733V27.9999C18.7733 28.7072 18.4923 29.3854 17.9922 29.8855C17.4921 30.3856 16.8138 30.6666 16.1066 30.6666C15.3993 30.6666 14.7211 30.3856 14.221 29.8855C13.7209 29.3854 13.4399 28.7072 13.4399 27.9999V27.8799C13.4296 27.4386 13.2867 27.0106 13.0299 26.6515C12.7731 26.2925 12.4142 26.019 11.9999 25.8666C11.5978 25.6891 11.1517 25.6362 10.7191 25.7146C10.2866 25.793 9.88749 25.9992 9.57325 26.3066L9.49325 26.3866C9.24559 26.6345 8.95149 26.8312 8.62776 26.9654C8.30403 27.0996 7.95703 27.1687 7.60658 27.1687C7.25614 27.1687 6.90914 27.0996 6.58541 26.9654C6.26168 26.8312 5.96758 26.6345 5.71992 26.3866C5.47198 26.1389 5.27529 25.8448 5.14109 25.5211C5.00689 25.1974 4.93782 24.8504 4.93782 24.4999C4.93782 24.1495 5.00689 23.8025 5.14109 23.4787C5.27529 23.155 5.47198 22.8609 5.71992 22.6132L5.79992 22.5333C6.1073 22.219 6.3135 21.8199 6.39192 21.3874C6.47035 20.9548 6.41741 20.5087 6.23992 20.1066C6.0709 19.7122 5.79026 19.3759 5.43254 19.139C5.07482 18.9021 4.65563 18.775 4.22659 18.7733H3.99992C3.29267 18.7733 2.6144 18.4923 2.1143 17.9922C1.6142 17.4921 1.33325 16.8138 1.33325 16.1066C1.33325 15.3993 1.6142 14.7211 2.1143 14.221C2.6144 13.7209 3.29267 13.4399 3.99992 13.4399H4.11992C4.56124 13.4296 4.98926 13.2867 5.34832 13.0299C5.70738 12.7731 5.98087 12.4142 6.13325 11.9999C6.31074 11.5978 6.36368 11.1517 6.28526 10.7191C6.20683 10.2866 6.00063 9.88749 5.69325 9.57325L5.61325 9.49325C5.36531 9.24559 5.16862 8.95149 5.03443 8.62776C4.90023 8.30403 4.83115 7.95703 4.83115 7.60658C4.83115 7.25614 4.90023 6.90914 5.03443 6.58541C5.16862 6.26168 5.36531 5.96758 5.61325 5.71992C5.86091 5.47198 6.15502 5.27529 6.47874 5.14109C6.80247 5.00689 7.14948 4.93782 7.49992 4.93782C7.85036 4.93782 8.19736 5.00689 8.52109 5.14109C8.84482 5.27529 9.13892 5.47198 9.38658 5.71992L9.46658 5.79992C9.78082 6.1073 10.1799 6.3135 10.6125 6.39192C11.045 6.47035 11.4911 6.41741 11.8933 6.23992H11.9999C12.3943 6.0709 12.7306 5.79026 12.9675 5.43254C13.2044 5.07482 13.3315 4.65563 13.3333 4.22659V3.99992C13.3333 3.29267 13.6142 2.6144 14.1143 2.1143C14.6144 1.6142 15.2927 1.33325 15.9999 1.33325C16.7072 1.33325 17.3854 1.6142 17.8855 2.1143C18.3856 2.6144 18.6666 3.29267 18.6666 3.99992V4.11992C18.6683 4.54897 18.7954 4.96815 19.0323 5.32587C19.2692 5.68359 19.6056 5.96423 19.9999 6.13325C20.4021 6.31074 20.8482 6.36368 21.2807 6.28526C21.7132 6.20683 22.1123 6.00063 22.4266 5.69325L22.5066 5.61325C22.7542 5.36531 23.0483 5.16862 23.3721 5.03443C23.6958 4.90023 24.0428 4.83115 24.3933 4.83115C24.7437 4.83115 25.0907 4.90023 25.4144 5.03443C25.7382 5.16862 26.0323 5.36531 26.2799 5.61325C26.5279 5.86091 26.7245 6.15502 26.8587 6.47874C26.9929 6.80247 27.062 7.14948 27.062 7.49992C27.062 7.85036 26.9929 8.19736 26.8587 8.52109C26.7245 8.84482 26.5279 9.13892 26.2799 9.38658L26.1999 9.46658C25.8925 9.78082 25.6863 10.1799 25.6079 10.6125C25.5295 11.045 25.5824 11.4911 25.7599 11.8933V11.9999C25.9289 12.3943 26.2096 12.7306 26.5673 12.9675C26.925 13.2044 27.3442 13.3315 27.7733 13.3333H27.9999C28.7072 13.3333 29.3854 13.6142 29.8855 14.1143C30.3856 14.6144 30.6666 15.2927 30.6666 15.9999C30.6666 16.7072 30.3856 17.3854 29.8855 17.8855C29.3854 18.3856 28.7072 18.6666 27.9999 18.6666H27.8799C27.4509 18.6683 27.0317 18.7954 26.674 19.0323C26.3162 19.2692 26.0356 19.6056 25.8666 19.9999V19.9999Z" stroke="url(#paint1_linear)" stroke-width="2.5" stroke-linecap="round" stroke-linejoin="round"/>
<defs>
<linearGradient id="paint0_linear" x1="11.4721" y1="11.9465" x2="22.8762" y2="15.1596" gradientUnits="userSpaceOnUse">
<stop stop-color="#B9EB79"/>
<stop offset="0.2865" stop-color="#35BDBC"/>
<stop offset="0.6541" stop-color="#0D72B9"/>
<stop offset="1" stop-color="#221F72"/>
</linearGradient>
<linearGradient id="paint1_linear" x1="-0.602423" y1="1.13713" x2="41.2127" y2="12.9186" gradientUnits="userSpaceOnUse">
<stop stop-color="#B9EB79"/>
<stop offset="0.2865" stop-color="#35BDBC"/>
<stop offset="0.6541" stop-color="#0D72B9"/>
<stop offset="1" stop-color="#221F72"/>
</linearGradient>
</defs>
</svg>
