<svg width="32" height="32" viewBox="0 0 32 32" fill="none" xmlns="http://www.w3.org/2000/svg">
<path d="M2.74662 13.4134C3.42662 14.0934 4.50662 14.16 5.23995 13.5467C11.4666 8.42669 20.5066 8.42669 26.7466 13.5334C27.4933 14.1467 28.5866 14.0934 29.2666 13.4134C30.0533 12.6267 30 11.32 29.1333 10.6134C21.52 4.38669 10.5066 4.38669 2.87995 10.6134C2.01328 11.3067 1.94662 12.6134 2.74662 13.4134ZM13.0933 23.76L15.0533 25.72C15.5733 26.24 16.4133 26.24 16.9333 25.72L18.8933 23.76C19.52 23.1334 19.3866 22.0534 18.5866 21.64C17.7801 21.2259 16.8866 21.0099 15.9799 21.0099C15.0733 21.0099 14.1798 21.2259 13.3733 21.64C12.6133 22.0534 12.4666 23.1334 13.0933 23.76ZM8.11995 18.7867C8.77328 19.44 9.79995 19.5067 10.5599 18.96C12.1507 17.8346 14.0513 17.2302 16 17.2302C17.9486 17.2302 19.8492 17.8346 21.44 18.96C22.2 19.4934 23.2266 19.44 23.8799 18.7867L23.8933 18.7734C24.6933 17.9734 24.64 16.6134 23.72 15.96C19.1333 12.64 12.88 12.64 8.27995 15.96C7.35995 16.6267 7.30662 17.9734 8.11995 18.7867Z" fill="url(#paint0_linear)"/>
<defs>
<linearGradient id="paint0_linear" x1="0.362372" y1="5.80853" x2="37.3684" y2="20.0968" gradientUnits="userSpaceOnUse">
<stop stop-color="#B9EB79"/>
<stop offset="0.2865" stop-color="#35BDBC"/>
<stop offset="0.6541" stop-color="#0D72B9"/>
<stop offset="1" stop-color="#221F72"/>
</linearGradient>
</defs>
</svg>
