<svg width="337" height="70" viewBox="0 0 337 70" fill="none" xmlns="http://www.w3.org/2000/svg">
<path d="M94.3493 27.9619H81.9386C78.7988 27.9619 75.6903 29.0524 74.3168 31.0722C72.946 33.0841 64.8066 44.9812 64.8066 44.9812C64.8066 44.9812 56.2041 32.6026 55.1402 31.0722C54.0815 29.5418 50.2654 27.9619 45.8406 27.9619C41.4237 27.9619 36 27.9619 36 27.9619C36 27.9619 52.3985 47.5188 53.2673 48.5495C54.1361 49.5802 58.4022 51.6364 64.3904 51.6364C70.3785 51.6364 74.3168 50.564 75.9764 48.5495C77.6231 46.5558 86.6833 35.5358 86.6833 35.5358C86.6833 35.5358 86.6833 47.079 86.6833 48.5495C86.6833 50.0227 89.2196 51.6364 94.3493 51.6364C99.4712 51.6364 102.907 50.0695 102.907 48.5495V31.0722C102.907 29.4715 99.9108 27.9619 94.3493 27.9619ZM316.363 45.7672C313.221 45.7672 311.405 44.6975 311.405 41.7564C311.405 38.8283 311.405 31.0722 311.405 31.0722C311.405 29.4455 308.341 27.9619 303.253 27.9619C298.178 27.9619 295.173 28.1987 295.173 31.0722C295.173 33.9456 295.173 46.2409 295.173 46.2409C295.173 46.2409 271.179 46.2409 268.45 46.2409C265.706 46.2409 264.538 45.8947 264.538 43.724C264.538 41.5482 264.538 41.5482 264.538 41.5482C264.538 41.5482 281.548 41.5482 284.487 41.5482C287.414 41.5482 289.869 41.6861 289.869 39.2239C289.869 36.7617 289.869 36.7643 289.869 36.7643C289.869 36.7643 271.179 36.7643 268.45 36.7643C265.706 36.7643 264.538 36.3974 264.538 34.7238C264.538 33.0398 264.538 33.0398 264.538 33.0398C264.538 33.0398 283.298 33.0398 286.043 33.0398C288.787 33.0398 291.818 32.1445 291.818 31.0722C291.818 29.9946 291.818 27.9619 291.818 27.9619C291.818 27.9619 264.07 27.9619 230.349 27.9619C228.029 27.9619 228.029 25.6194 228.029 25.6194V25.1015C228.029 23.6622 225.165 22.0225 220.457 22.0225C215.782 22.0225 211.784 23.2041 211.784 25.1015V25.7287L211.732 25.6194C211.732 25.6194 211.732 27.9619 209.404 27.9619H189.951C187.636 27.9619 187.636 25.6194 187.636 25.6194L187.566 25.7287V25.1015C187.566 23.6622 184.705 22.0225 180.012 22.0225C175.319 22.0225 171.321 23.2041 171.321 25.1015V25.6194C171.321 25.6194 171.321 27.9619 169.009 27.9619H111.588C108.651 27.9619 107.114 28.977 107.114 31.0722C107.114 32.6078 107.114 48.5495 107.114 48.5495C107.114 50.0695 109.041 51.6364 113.737 51.6364H145.792C148.266 51.6364 151.421 50.1164 151.421 48.4844C151.421 46.8681 151.421 46.2435 151.421 46.2435C151.421 46.2435 129.331 46.2435 127.102 46.2435C124.873 46.2435 123.346 45.7255 123.346 43.6356C123.346 41.5508 123.346 41.5508 123.346 41.5508C123.346 41.5508 140.852 41.5508 143.191 41.5508C145.55 41.5508 148.677 41.5976 148.677 39.1823C148.677 36.7669 148.677 36.7669 148.677 36.7669C148.677 36.7669 129.454 36.7669 127.227 36.7669C125 36.7669 123.346 36.6082 123.346 35.2105C123.346 33.8259 123.346 33.8258 123.346 33.8258C123.346 33.8258 159.693 33.8258 163.796 33.8258C167.903 33.8258 171.321 35.1064 171.321 39.2265V48.5495C171.321 49.9888 175.15 51.6364 179.645 51.6364C184.143 51.6364 187.566 50.0539 187.566 48.5495V39.2265C187.566 36.8763 189.624 33.8258 194.124 33.8258H205.27C208.975 33.8258 211.779 35.5098 211.779 39.0261V48.5495C211.779 49.9888 214.653 51.6364 219.354 51.6364C224.046 51.6364 228.024 50.4469 228.024 48.5495V39.0261C228.024 36.6811 231.075 33.8258 233.819 33.8258H242.232C245.158 33.8258 248.298 35.7154 248.298 39.2265V48.5495C248.298 49.9888 249.653 51.6364 253.181 51.6364H330.241C333.768 51.6364 336.635 50.2543 336.635 48.5495C336.635 46.8681 336.635 45.7698 336.635 45.7698C336.635 45.7698 319.485 45.7672 316.363 45.7672Z" fill="white"/>
</svg>
