<svg width="290" height="106" viewBox="0 0 290 106" fill="none" xmlns="http://www.w3.org/2000/svg">
<g filter="url(#filter0_d)">
<rect x="24.4763" y="19.7522" width="231.047" height="47.0474" rx="20.4806" fill="#00918C" stroke="#00918C" stroke-width="0.952586"/>
<path d="M97.5673 52.6972H93.7272L93.9616 41.7573L90.3894 52.6972H86.4377L82.7538 41.601L83.0217 52.6972H79.07V36.0195H84.4618L88.3354 47.7296L92.1755 36.0195H97.5673V52.6972ZM114.658 46.0328C114.658 46.5984 114.636 47.1007 114.591 47.5398C114.546 47.9714 114.487 48.3919 114.412 48.8012C114.256 49.5678 113.996 50.1482 113.631 50.5427C112.976 51.3315 112.146 51.9157 111.142 52.2953C110.137 52.6674 108.902 52.8534 107.435 52.8534C105.969 52.8534 104.741 52.6711 103.752 52.3064C102.747 51.9343 101.895 51.3464 101.195 50.5427C100.86 50.0813 100.626 49.5157 100.492 48.8459C100.336 48.1761 100.258 47.2384 100.258 46.0328V36.0195H104.142V45.9435C104.142 47.35 104.381 48.3324 104.857 48.8905C105.355 49.4338 106.215 49.7054 107.435 49.7054C108.656 49.7054 109.519 49.4338 110.025 48.8905C110.509 48.3324 110.751 47.35 110.751 45.9435V36.0195H114.658V46.0328ZM132.977 52.6972H128.59L127.127 48.8682H120.608L119.19 52.6972H114.982L121.959 36.0195H125.933L132.977 52.6972ZM125.799 45.4188L123.812 40.3396L121.914 45.4188H125.799ZM153.628 52.6972H149.286L142.878 41.3331L143.012 52.6972H139.038V36.0195H143.727L149.766 46.7695L149.632 36.0195H153.628V52.6972ZM170.541 52.686H163.039C162.369 52.686 161.778 52.6562 161.264 52.5967C160.728 52.5372 160.271 52.4516 159.891 52.3399C159.169 52.1018 158.473 51.7222 157.803 51.2013C156.955 50.4869 156.323 49.5901 155.906 48.511C155.482 47.4244 155.269 46.1332 155.269 44.6374C155.269 41.7126 155.909 39.5433 157.19 38.1293C158.455 36.7227 160.404 36.0195 163.039 36.0195H170.541V39.3572H163.039C161.856 39.3572 160.981 39.7517 160.416 40.5405C159.85 41.3219 159.567 42.6355 159.567 44.4811C159.567 46.1556 159.839 47.3649 160.382 48.1091C160.933 48.8459 161.818 49.2143 163.039 49.2143H166.533V45.9881H162.057V42.5834H170.541V52.686ZM188.39 52.6972H184.003L182.541 48.8682H176.022L174.604 52.6972H170.395L177.372 36.0195H181.347L188.39 52.6972ZM181.213 45.4188L179.226 40.3396L177.328 45.4188H181.213ZM202.59 36.0195L196.216 45.3518V52.6972H192.309V45.3741L185.968 36.0195H190.456L194.229 41.9247L198.024 36.0195H202.59Z" fill="white"/>
</g>
<defs>
<filter id="filter0_d" x="0.185347" y="0.224156" width="289.155" height="105.155" filterUnits="userSpaceOnUse" color-interpolation-filters="sRGB">
<feFlood flood-opacity="0" result="BackgroundImageFix"/>
<feColorMatrix in="SourceAlpha" type="matrix" values="0 0 0 0 0 0 0 0 0 0 0 0 0 0 0 0 0 0 127 0"/>
<feOffset dx="4.76293" dy="9.52586"/>
<feGaussianBlur stdDeviation="14.2888"/>
<feColorMatrix type="matrix" values="0 0 0 0 0.180392 0 0 0 0 0.670588 0 0 0 0 0.843137 0 0 0 0.2 0"/>
<feBlend mode="normal" in2="BackgroundImageFix" result="effect1_dropShadow"/>
<feBlend mode="normal" in="SourceGraphic" in2="effect1_dropShadow" result="shape"/>
</filter>
</defs>
</svg>
